<svg width="16" height="112" viewBox="0 0 16 112" fill="none" xmlns="http://www.w3.org/2000/svg">
<g clip-path="url(#clip0_226_1007)">
<path opacity="0.4" fill-rule="evenodd" clip-rule="evenodd" d="M8.00023 -3.43958e-08C8.43481 -1.53995e-08 8.78711 0.182121 8.78711 0.40678L8.78711 47.5932C8.78711 47.8179 8.43481 48 8.00022 48C7.56564 48 7.21334 47.8179 7.21334 47.5932L7.21334 0.40678C7.21334 0.182121 7.56564 -5.33921e-08 8.00023 -3.43958e-08Z" fill="#0194F3" fill-opacity="0.3"/>
<path fill-rule="evenodd" clip-rule="evenodd" d="M12.4712 53.5287C12.2109 53.2683 11.7888 53.2683 11.5284 53.5287L7.99984 57.0573L4.47124 53.5287C4.21089 53.2683 3.78878 53.2683 3.52843 53.5287C3.26808 53.789 3.26808 54.2112 3.52843 54.4715L7.52843 58.4715C7.78878 58.7319 8.21089 58.7319 8.47124 58.4715L12.4712 54.4715C12.7316 54.2112 12.7316 53.789 12.4712 53.5287Z" fill="#0194F3" fill-opacity="0.3"/>
<path opacity="0.4" fill-rule="evenodd" clip-rule="evenodd" d="M7.99996 64C8.22462 64 8.40674 64.1821 8.40674 64.4068L8.40674 111.593C8.40674 111.818 8.22461 112 7.99996 112C7.7753 112 7.59318 111.818 7.59318 111.593L7.59318 64.4068C7.59318 64.1821 7.7753 64 7.99996 64Z" fill="#0194F3" fill-opacity="0.3"/>
</g>
<defs>
<clipPath id="clip0_226_1007">
<rect width="112" height="16" fill="white" transform="translate(16) rotate(90)"/>
</clipPath>
</defs>
</svg>
