<svg width="48" height="48" viewBox="0 0 48 48" fill="none" xmlns="http://www.w3.org/2000/svg">
<g opacity="0.8">
<path opacity="0.35" d="M33 24C37.9706 24 42 19.9706 42 15C42 10.0294 37.9706 6 33 6C28.0294 6 24 10.0294 24 15C24 19.9706 28.0294 24 33 24Z" fill="#0194F3"/>
<path opacity="0.35" d="M4 37.8599V26.2579C4 24.8939 4.938 23.7079 6.266 23.3919L10.876 22.3019C13.232 21.7439 15.706 21.9619 17.93 22.9199L26.688 26.6959C29.466 27.8939 30.718 31.1419 29.46 33.8939L30.206 34.8719L39.512 31.5499C41.278 30.8939 43.236 31.8319 43.832 33.6179C44.356 35.1899 43.644 36.9079 42.162 37.6499L32.916 42.3059C31.074 43.2259 28.942 43.3779 26.988 42.7279L14.708 38.6339C12.958 38.0499 11.068 38.0459 9.314 38.6179L6.37 39.5799C5.202 39.9619 4 39.0899 4 37.8599Z" fill="#0194F3"/>
<path d="M36 4C33.728 4 31.686 4.958 30.23 6.48C31.108 6.194 32.028 6 33 6C37.97 6 42 10.03 42 15C42 15.972 41.806 16.892 41.52 17.77C43.042 16.312 44 14.272 44 12C44 7.582 40.418 4 36 4Z" fill="#0194F3"/>
<path d="M33.138 13.4301C33.044 13.4301 32.928 13.4421 32.796 13.4701C32.662 13.4961 32.544 13.5301 32.44 13.5741L32.504 11.9981H34.51C35.006 11.9981 35.406 11.5961 35.406 11.1021C35.406 10.6061 35.004 10.2061 34.51 10.2061H31.784C31.22 10.2061 30.756 10.6521 30.736 11.2161L30.622 14.3201C30.604 14.8081 31.048 15.2001 31.524 15.0961C31.794 15.0361 32.098 14.9921 32.4 14.9921C32.77 14.9921 33.742 15.4221 33.742 16.3741C33.742 17.4721 33.278 17.7421 32.788 17.7421C32.486 17.7421 32.246 17.5121 32.076 17.2641C31.836 16.9121 31.392 16.7641 30.986 16.8901C30.39 17.0781 30.096 17.7861 30.43 18.3141C30.59 18.5681 31.588 19.5361 32.836 19.5361C35.044 19.5361 35.726 17.5201 35.726 16.3101C35.732 15.4321 35.262 13.4301 33.138 13.4301Z" fill="#0194F3"/>
</g>
</svg>
