<svg width="48" height="48" viewBox="0 0 48 48" fill="none" xmlns="http://www.w3.org/2000/svg">
<g opacity="0.8">
<path d="M28.788 27.3919C28.788 22.1779 23.032 22.8899 23.032 20.1719C23.032 18.5719 24.29 18.4039 24.726 18.4039C25.156 18.4039 25.534 18.5059 25.856 18.6519C26.612 18.9939 27.51 18.6759 27.99 17.9979C28.604 17.1279 28.286 15.9059 27.316 15.4699C26.784 15.2299 26.12 15.0379 25.316 14.9619V14.2019C25.316 13.5059 24.752 12.9399 24.054 12.9399C23.356 12.9399 22.792 13.5039 22.792 14.2019V15.2259C20.68 15.9299 19.308 17.8639 19.308 20.3379C19.308 25.8099 24.992 24.8219 24.992 27.6659C24.992 28.2139 24.734 29.4059 23.322 29.4059C22.694 29.4059 22.154 29.2299 21.714 28.9979C20.966 28.6059 20.038 28.8959 19.562 29.5919L19.512 29.6659C18.962 30.4719 19.184 31.5999 20.032 32.0799C20.746 32.4839 21.616 32.7979 22.668 32.9099V33.7959C22.668 34.4919 23.232 35.0579 23.93 35.0579C24.626 35.0579 25.192 34.4939 25.192 33.7959V32.6839C27.528 31.9679 28.788 29.8379 28.788 27.3919Z" fill="#0194F3"/>
<path opacity="0.35" d="M4 24H3.174C2.224 24 1.668 25.072 2.218 25.848L5.044 29.838C5.512 30.498 6.49 30.498 6.956 29.838L9.782 25.848C10.332 25.072 9.778 24 8.826 24H8C8 14.114 16.966 6.322 27.21 8.312C33.448 9.524 38.476 14.552 39.688 20.79C41.678 31.034 33.886 40 24 40C20.732 40 17.694 39.018 15.162 37.336C14.324 36.778 13.202 36.958 12.556 37.73C11.794 38.644 11.988 40.03 12.98 40.688C16.806 43.22 21.552 44.476 26.612 43.834C35.614 42.692 42.86 35.326 43.87 26.308C45.222 14.228 35.806 4 24 4C12.954 4 4 12.954 4 24Z" fill="#0194F3"/>
</g>
</svg>
