<svg width="48" height="48" viewBox="0 0 48 48" fill="none" xmlns="http://www.w3.org/2000/svg">
<g opacity="0.8">
<path opacity="0.35" fill-rule="evenodd" clip-rule="evenodd" d="M22.224 3.71202C22.738 3.33002 23.36 3.12402 24 3.12402C24.64 3.12402 25.262 3.33002 25.776 3.71202L29.432 6.43202C29.504 6.48602 29.584 6.52602 29.668 6.55402C29.752 6.58202 29.842 6.59602 29.932 6.59402L34.488 6.54202C35.128 6.53402 35.754 6.73402 36.27 7.11002C36.788 7.48602 37.17 8.02002 37.362 8.63002L38.722 12.978C38.748 13.064 38.79 13.144 38.842 13.216C38.894 13.288 38.958 13.352 39.032 13.404L42.748 16.04C43.27 16.41 43.658 16.938 43.856 17.548C44.054 18.156 44.05 18.812 43.846 19.42L42.39 23.738C42.362 23.822 42.346 23.912 42.346 24C42.346 24.088 42.36 24.178 42.39 24.262L43.846 28.58C44.05 29.186 44.054 29.842 43.856 30.452C43.658 31.06 43.27 31.59 42.748 31.96L39.032 34.596C38.96 34.648 38.896 34.71 38.842 34.784C38.79 34.856 38.75 34.936 38.722 35.022L37.362 39.37C37.172 39.98 36.788 40.514 36.27 40.89C35.752 41.266 35.128 41.466 34.488 41.458L29.932 41.406C29.842 41.404 29.754 41.418 29.668 41.446C29.584 41.474 29.504 41.514 29.432 41.568L25.776 44.288C25.262 44.67 24.64 44.876 24 44.876C23.36 44.876 22.738 44.67 22.224 44.288L18.568 41.568C18.496 41.514 18.416 41.474 18.332 41.446C18.248 41.418 18.158 41.404 18.068 41.406L13.512 41.458C12.872 41.466 12.246 41.266 11.73 40.89C11.212 40.514 10.83 39.98 10.638 39.37L9.278 35.022C9.252 34.936 9.21 34.856 9.158 34.784C9.106 34.712 9.042 34.648 8.968 34.596L5.252 31.96C4.73 31.59 4.342 31.062 4.144 30.452C3.946 29.844 3.95 29.188 4.154 28.58L5.61 24.262C5.642 24.178 5.656 24.09 5.656 24C5.656 23.91 5.642 23.822 5.612 23.738L4.156 19.42C3.952 18.814 3.948 18.158 4.146 17.548C4.344 16.94 4.732 16.412 5.254 16.042L8.97 13.406C9.042 13.352 9.106 13.29 9.16 13.218C9.212 13.146 9.252 13.066 9.27999 12.98L10.64 8.63202C10.83 8.02202 11.214 7.48802 11.732 7.11202C12.25 6.73602 12.874 6.53602 13.514 6.54402L18.07 6.59602C18.16 6.59802 18.248 6.58402 18.334 6.55602C18.418 6.52802 18.498 6.48802 18.57 6.43402L22.224 3.71202Z" fill="#0194F3"/>
<path fill-rule="evenodd" clip-rule="evenodd" d="M22 32C21.488 32 20.976 31.804 20.586 31.414L14.586 25.414C13.804 24.632 13.804 23.368 14.586 22.586C15.368 21.804 16.632 21.804 17.414 22.586L22 27.172L30.586 18.586C31.368 17.804 32.632 17.804 33.414 18.586C34.196 19.368 34.196 20.632 33.414 21.414L23.414 31.414C23.024 31.804 22.512 32 22 32Z" fill="#0194F3"/>
</g>
</svg>
