<svg width="48" height="48" viewBox="0 0 48 48" fill="none" xmlns="http://www.w3.org/2000/svg">
<g opacity="0.8">
<path opacity="0.35" d="M36 42H12C8.686 42 6 39.314 6 36V12C6 8.686 8.686 6 12 6H36C39.314 6 42 8.686 42 12V36C42 39.314 39.314 42 36 42Z" fill="#0194F3"/>
<path d="M41.932 4.86207C39.948 3.43407 37.164 3.85407 35.434 5.58407L21.438 19.5801C20.518 20.5001 20 21.7481 20 23.0501V26.0721C20 27.1141 20.844 27.9601 21.888 27.9601H24.91C26.212 27.9601 27.46 27.4421 28.38 26.5221L42.562 12.3401C44.67 10.2321 44.46 6.68207 41.932 4.86207Z" fill="#0194F3"/>
</g>
</svg>
