<svg width="48" height="48" viewBox="0 0 48 48" fill="none" xmlns="http://www.w3.org/2000/svg">
<g opacity="0.8">
<path opacity="0.35" d="M36 42H12C8.686 42 6 39.314 6 36V12C6 8.686 8.686 6 12 6H36C39.314 6 42 8.686 42 12V36C42 39.314 39.314 42 36 42Z" fill="#0194F3"/>
<path d="M14 36C12.894 36 12 35.106 12 34V30.662C12 22.578 18.578 16 26.662 16H32C33.106 16 34 16.894 34 18C34 19.106 33.106 20 32 20H26.662C20.784 20 16 24.784 16 30.662V34C16 35.106 15.106 36 14 36Z" fill="#0194F3"/>
<path d="M28 24.6099C28 25.8439 29.488 26.4639 30.364 25.5959L36.592 19.4259C37.384 18.6399 37.384 17.3599 36.592 16.5739L30.364 10.4039C29.488 9.53591 28 10.1579 28 11.3899V24.6099Z" fill="#0194F3"/>
</g>
</svg>
