<svg width="32" height="32" viewBox="0 0 32 32" fill="none" xmlns="http://www.w3.org/2000/svg">
<g id="Twitter">
<g id="Twitter_2">
<rect id="Rectangle" width="32" height="32" rx="16" fill="#1DA1F2"/>
<path id="Path" d="M23.7005 11.9936C23.7005 12.1739 23.7005 12.3543 23.7005 12.5089C23.7005 17.8422 19.6296 24 12.2093 24C9.91627 24 7.80354 23.3301 6 22.1965C6.30918 22.2222 6.64412 22.248 6.9533 22.248C8.83414 22.248 10.5862 21.6039 11.9775 20.5217C10.1997 20.496 8.70531 19.3108 8.21578 17.7134C8.47343 17.7649 8.70531 17.7907 8.98873 17.7907C9.34944 17.7907 9.71015 17.7391 10.0451 17.6361C8.19002 17.2754 6.79871 15.6522 6.79871 13.694C6.79871 13.6683 6.79871 13.6683 6.79871 13.6425C7.33977 13.9517 7.95813 14.132 8.62802 14.1578C7.54589 13.4364 6.82448 12.1997 6.82448 10.7826C6.82448 10.0354 7.0306 9.33977 7.36554 8.74718C9.34944 11.1948 12.3382 12.7923 15.6876 12.9726C15.6103 12.6892 15.5845 12.3543 15.5845 12.0451C15.5845 9.80354 17.3881 8 19.6296 8C20.7891 8 21.8454 8.48953 22.5668 9.26248C23.4944 9.08213 24.3446 8.74718 25.1433 8.28341C24.8341 9.23671 24.19 10.0097 23.3655 10.525C24.19 10.4219 24.963 10.2158 25.6844 9.88084C25.1691 10.7053 24.4992 11.4267 23.7005 11.9936Z" fill="white"/>
</g>
</g>
</svg>
