<svg width="32" height="32" viewBox="0 0 32 32" fill="none" xmlns="http://www.w3.org/2000/svg">
<g id="WhatsApp">
<g id="WhatsApp_2">
<rect id="Rectangle" width="32" height="32" rx="16" fill="#0DC143"/>
<path id="Vector" d="M22.973 8.91892C21.1351 7.02703 18.5946 6 16 6C10.4865 6 6.05405 10.4865 6.10811 15.9459C6.10811 17.6757 6.59459 19.3514 7.40541 20.8649L6 26L11.2432 24.6486C12.7027 25.4595 14.3243 25.8378 15.9459 25.8378C21.4054 25.8378 25.8378 21.3514 25.8378 15.8919C25.8378 13.2432 24.8108 10.7568 22.973 8.91892ZM16 24.1622C14.5405 24.1622 13.0811 23.7838 11.8378 23.027L11.5135 22.8649L8.37838 23.6757L9.18919 20.5946L8.97297 20.2703C6.59459 16.4324 7.72973 11.3514 11.6216 8.97297C15.5135 6.59459 20.5405 7.72973 22.9189 11.6216C25.2973 15.5135 24.1622 20.5405 20.2703 22.9189C19.027 23.7297 17.5135 24.1622 16 24.1622ZM20.7568 18.1622L20.1622 17.8919C20.1622 17.8919 19.2973 17.5135 18.7568 17.2432C18.7027 17.2432 18.6487 17.1892 18.5946 17.1892C18.4324 17.1892 18.3243 17.2432 18.2162 17.2973C18.2162 17.2973 18.1622 17.3514 17.4054 18.2162C17.3514 18.3243 17.2432 18.3784 17.1351 18.3784H17.0811C17.027 18.3784 16.9189 18.3243 16.8649 18.2703L16.5946 18.1622C16 17.8919 15.4595 17.5676 15.027 17.1351C14.9189 17.027 14.7568 16.9189 14.6487 16.8108C14.2703 16.4324 13.8919 16 13.6216 15.5135L13.5676 15.4054C13.5135 15.3514 13.5135 15.2973 13.4595 15.1892C13.4595 15.0811 13.4595 14.973 13.5135 14.9189C13.5135 14.9189 13.7297 14.6486 13.8919 14.4865C14 14.3784 14.0541 14.2162 14.1622 14.1081C14.2703 13.9459 14.3243 13.7297 14.2703 13.5676C14.2162 13.2973 13.5676 11.8378 13.4054 11.5135C13.2973 11.3514 13.1892 11.2973 13.027 11.2432H12.8649C12.7568 11.2432 12.5946 11.2432 12.4324 11.2432C12.3243 11.2432 12.2162 11.2973 12.1081 11.2973L12.0541 11.3514C11.9459 11.4054 11.8378 11.5135 11.7297 11.5676C11.6216 11.6757 11.5676 11.7838 11.4595 11.8919C11.0811 12.3784 10.8649 12.973 10.8649 13.5676C10.8649 14 10.973 14.4324 11.1351 14.8108L11.1892 14.973C11.6757 16 12.3243 16.9189 13.1892 17.7297L13.4054 17.9459C13.5676 18.1081 13.7297 18.2162 13.8378 18.3784C14.973 19.3514 16.2703 20.0541 17.7297 20.4324C17.8919 20.4865 18.1081 20.4865 18.2703 20.5405C18.4324 20.5405 18.6487 20.5405 18.8108 20.5405C19.0811 20.5405 19.4054 20.4324 19.6216 20.3243C19.7838 20.2162 19.8919 20.2162 20 20.1081L20.1081 20C20.2162 19.8919 20.3243 19.8378 20.4324 19.7297C20.5405 19.6216 20.6487 19.5135 20.7027 19.4054C20.8108 19.1892 20.8649 18.9189 20.9189 18.6486C20.9189 18.5405 20.9189 18.3784 20.9189 18.2703C20.9189 18.2703 20.8649 18.2162 20.7568 18.1622Z" fill="white"/>
</g>
</g>
</svg>
